name C:\Users\u0101727\Documents\MyRepositories\upper-imu-dc\Results\main_tracking\Case_31\kinematics.mot
datacolumns 10
datarows 42
range 0.50000000 0.91000000
endheader 
time	clav_prot	clav_elev	scapula_abduction	scapula_elevation	scapula_upward_rot	scapula_winging	plane_elv	shoulder_elv	axial_rot	
          0.50000000	        -23.89065675	         -6.31447717	        -15.10205098	         -5.02184733	         10.81102492	          6.64206545	        -28.93175826	         13.28676223	         46.07449064	
          0.51000000	        -23.60487528	         -6.32056306	        -15.03987050	         -5.06209163	         10.78630457	          6.66959740	        -28.41363495	         13.35807239	         45.34056465	
          0.52000000	        -23.59364782	         -6.36376358	        -15.01935509	         -5.09069626	         10.77078230	          6.68933622	        -27.86543758	         13.45157674	         44.58495400	
          0.53000000	        -23.66458394	         -6.39683408	        -15.14232191	         -5.11654915	         10.75517628	          6.70666096	        -27.28742801	         13.56467419	         43.80397565	
          0.54000000	        -23.70120492	         -6.43153915	        -15.20323531	         -5.14286611	         10.74451333	          6.72285588	        -26.68851314	         13.68356919	         42.98603931	
          0.55000000	        -23.70416843	         -6.46733170	        -15.20302266	         -5.16943591	         10.73945459	          6.73767572	        -26.07331346	         13.79818508	         42.14815958	
          0.56000000	        -23.69693305	         -6.50153704	        -15.18385505	         -5.19502575	         10.73768666	          6.75100261	        -25.44253969	         13.90207905	         41.32096178	
          0.57000000	        -23.69055297	         -6.53230383	        -15.16556043	         -5.21867778	         10.73842229	          6.76246863	        -24.80131900	         13.98963731	         40.54452784	
          0.58000000	        -23.68723524	         -6.55890881	        -15.15198495	         -5.24001629	         10.74184210	          6.77177976	        -24.15599250	         14.05672825	         39.85946340	
          0.59000000	        -23.68623777	         -6.58161963	        -15.14163014	         -5.25927836	         10.74823282	          6.77895184	        -23.51046623	         14.10150424	         39.29770850	
          0.60000000	        -23.68634344	         -6.60164542	        -15.13209345	         -5.27734278	         10.75766211	          6.78440795	        -22.86416380	         14.12480735	         38.87479706	
          0.61000000	        -23.68626702	         -6.62104793	        -15.12079836	         -5.29568152	         10.76995954	          6.78895817	        -22.21131892	         14.13020141	         38.58494015	
          0.62000000	        -23.68510812	         -6.64241834	        -15.10582703	         -5.31614615	         10.78474933	          6.79367696	        -21.54127037	         14.12366734	         38.40031736	
          0.63000000	        -23.68297442	         -6.66833797	        -15.08706432	         -5.34061145	         10.80153549	          6.79968716	        -20.83975747	         14.11289720	         38.27549809	
          0.64000000	        -23.68088246	         -6.70080015	        -15.06603465	         -5.37058033	         10.81992301	          6.80788552	        -20.09108263	         14.10619592	         38.15621192	
          0.65000000	        -23.67995803	         -6.74077434	        -15.04447356	         -5.40686982	         10.83989361	          6.81869682	        -19.28049905	         14.11128532	         37.98936730	
          0.66000000	        -23.68066136	         -6.78803335	        -15.02294787	         -5.44946997	         10.86196078	          6.83195387	        -18.39600740	         14.13444634	         37.73028285	
          0.67000000	        -23.68267245	         -6.84125553	        -15.00066708	         -5.49759837	         10.88710693	          6.84694157	        -17.42917777	         14.18025460	         37.34494862	
          0.68000000	        -23.68523524	         -6.89835045	        -14.97611460	         -5.54991680	         10.91657219	          6.86256908	        -16.37525183	         14.25181494	         36.80825314	
          0.69000000	        -23.68766524	         -6.95690273	        -14.94795891	         -5.60483817	         10.95159896	          6.87760393	        -15.23302031	         14.35121741	         36.10107571	
          0.70000000	        -23.68971603	         -7.01462636	        -14.91569085	         -5.66084862	         10.99323355	          6.89090033	        -14.00479405	         14.47991628	         35.20889148	
          0.71000000	        -23.69157895	         -7.06973207	        -14.87958942	         -5.71677059	         11.04224309	          6.90156635	        -12.69639774	         14.63884586	         34.12284362	
          0.72000000	        -23.69359268	         -7.12112465	        -14.84017608	         -5.77190176	         11.09912814	          6.90904096	        -11.31683355	         14.82827886	         32.84237794	
          0.73000000	        -23.69595810	         -7.16838336	        -14.79770328	         -5.82599683	         11.16417641	          6.91307592	         -9.87731278	         15.04757083	         31.37757415	
          0.74000000	        -23.69856774	         -7.21154637	        -14.75187215	         -5.87910880	         11.23753325	          6.91363516	         -8.38966670	         15.29493996	         29.74964147	
          0.75000000	        -23.70088488	         -7.25078473	        -14.70166034	         -5.93134609	         11.31926758	          6.91074781	         -6.86447032	         15.56739800	         27.98915529	
          0.76000000	        -23.70195390	         -7.28609236	        -14.64540271	         -5.98263488	         11.40937932	          6.90437974	         -5.30939123	         15.86093223	         26.13264110	
          0.77000000	        -23.70071008	         -7.31711770	        -14.58140229	         -6.03258744	         11.50772134	          6.89438565	         -3.72827679	         16.17096732	         24.21857257	
          0.78000000	        -23.69650897	         -7.34320825	        -14.50888618	         -6.08054337	         11.61389724	          6.88055759	         -2.12131236	         16.49300014	         22.28377203	
          0.79000000	        -23.68970360	         -7.36365403	        -14.42895744	         -6.12578920	         11.72723828	          6.86274088	         -0.48626169	         16.82321522	         20.36093418	
          0.80000000	        -23.68177458	         -7.37805777	        -14.34466386	         -6.16789042	         11.84694126	          6.84096154	          1.17953033	         17.15888487	         18.47761376	
          0.81000000	        -23.67504619	         -7.38674076	        -14.26030467	         -6.20704496	         11.97228453	          6.81554610	          2.87698361	         17.49854530	         16.65649772	
          0.82000000	        -23.67182390	         -7.39103531	        -14.17977983	         -6.24430580	         12.10282233	          6.78718750	          4.60363955	         17.84197133	         14.91630813	
          0.83000000	        -23.67356126	         -7.39335073	        -14.10514866	         -6.28157690	         12.23837905	          6.75696007	          6.35304117	         18.19011713	         13.27251744	
          0.84000000	        -23.68020705	         -7.39689358	        -14.03567236	         -6.32130597	         12.37886500	          6.72623315	          8.11519722	         18.54501444	         11.73746311	
          0.85000000	        -23.69018294	         -7.40503625	        -13.96808049	         -6.36591561	         12.52397750	          6.69647784	          9.87785587	         18.90963253	         10.31986213	
          0.86000000	        -23.70078596	         -7.42041534	        -13.89757932	         -6.41707589	         12.67298623	          6.66894881	         11.62805292	         19.28757686	          9.02414091	
          0.87000000	        -23.70850270	         -7.44393147	        -13.81863793	         -6.47493971	         12.82468178	          6.64427697	         13.35352640	         19.68262528	          7.84992696	
          0.88000000	        -23.71070264	         -7.47394728	        -13.72803861	         -6.53764363	         12.97742025	          6.62213377	         15.04357413	         20.09828600	          6.79199421	
          0.89000000	        -23.71062548	         -7.50767116	        -13.63300339	         -6.60274894	         13.12934696	          6.60184466	         16.69138312	         20.53743683	          5.84011190	
          0.90000000	        -23.70900720	         -7.54544456	        -13.53523627	         -6.67034236	         13.27959373	          6.58379298	         18.29859542	         21.00117419	          4.97860775	
          0.91000000	        -23.70451167	         -7.58728028	        -13.43291675	         -6.74015130	         13.42737367	          6.56816066	         19.86983891	         21.49006387	          4.18649462	
